<svg xmlns="http://www.w3.org/2000/svg" viewBox="0 0 1200 700"><defs><linearGradient id="g" x1="0" y1="0" x2="1" y2="1"><stop stop-color="#064e3b"/><stop offset=".55" stop-color="#16a34a"/><stop offset="1" stop-color="#f59e0b"/></linearGradient></defs><rect width="1200" height="700" fill="url(#g)"/><circle cx="980" cy="110" r="76" fill="#fde68a" opacity=".9"/><path d="M0 430 C180 310 270 360 420 260 C600 140 760 310 940 210 C1060 145 1130 160 1200 130 L1200 700 L0 700Z" fill="#052e16" opacity=".55"/><path d="M0 500 C180 420 280 430 460 360 C630 300 760 390 930 330 C1060 285 1140 295 1200 270 L1200 700 L0 700Z" fill="#14532d" opacity=".82"/><rect x="84" y="82" width="555" height="176" rx="34" fill="white" opacity=".92"/><text x="128" y="155" font-family="Arial" font-size="48" font-weight="700" fill="#064e3b">Coffee Farm 4</text><text x="128" y="211" font-family="Arial" font-size="30" fill="#475569">Loei Coffee Plantation</text><g fill="#bbf7d0" opacity=".95"><ellipse cx="160" cy="590" rx="34" ry="60"/><ellipse cx="260" cy="590" rx="34" ry="60"/><ellipse cx="360" cy="590" rx="34" ry="60"/><ellipse cx="460" cy="590" rx="34" ry="60"/><ellipse cx="560" cy="590" rx="34" ry="60"/><ellipse cx="660" cy="590" rx="34" ry="60"/><ellipse cx="760" cy="590" rx="34" ry="60"/><ellipse cx="860" cy="590" rx="34" ry="60"/><ellipse cx="960" cy="590" rx="34" ry="60"/></g></svg>
